<svg version="1.1" xmlns="http://www.w3.org/2000/svg" xmlns:xlink="http://www.w3.org/1999/xlink" width="512.000000pt" height="512.000000pt" viewBox="0,0,256,256"><g fill="#ffffff" fill-rule="nonzero" stroke="none" stroke-width="1" stroke-linecap="butt" stroke-linejoin="miter" stroke-miterlimit="10" stroke-dasharray="" stroke-dashoffset="0" font-family="none" font-weight="none" font-size="none" text-anchor="none" style="mix-blend-mode: normal"><g transform="scale(0.5,0.5)"><g transform="translate(0,512) scale(0.1,-0.1)"><path d="M320,2560v-2560h2240h2240v2560v2560h-2240h-2240zM745,4435c0,-513 0,-513 -61,-592c-24,-32 -88,-75 -131,-88l-23,-6v574c0,315 3,577 7,581c4,4 52,5 107,4l101,-3zM1170,2560v-2350h-105h-105v334c0,193 -4,346 -10,360c-24,65 -118,82 -169,31l-26,-25l-5,-348l-5,-347h-105h-105l-3,1655l-2,1655l75,24c136,42 241,129 299,246c52,107 56,149 56,653v462h105h105zM2028,3788l2,-1118h-110h-110v284c0,269 -1,285 -20,309c-30,38 -80,52 -123,33c-64,-26 -67,-42 -67,-351v-275h-105h-105v1120v1120l318,-2l317,-3zM2880,2560v-2350h-320h-320v2350v2350h320h320zM3730,3790v-1120h-320h-320v1113c0,613 3,1117 7,1120c3,4 147,7 320,7h313zM4160,4576c0,-193 4,-346 10,-360c24,-65 118,-82 169,-31l26,25l5,348l5,347h105h105v-804v-803l-68,-23c-187,-63 -304,-191 -343,-373c-20,-97 -20,-1017 0,-1114c39,-182 160,-313 341,-369l75,-24l-2,-590l-3,-590h-105h-105l-5,236c-5,213 -7,239 -24,258c-30,33 -78,45 -119,27c-62,-26 -67,-47 -67,-301v-225h-105h-105v2350v2350h105h105zM4590,2345c0,-587 -2,-725 -13,-725c-31,0 -124,68 -154,112c-51,77 -55,127 -50,653c3,510 4,513 60,587c30,40 115,97 145,98c9,0 12,-152 12,-725zM2028,1333l-3,-1118l-317,-3l-318,-2v1120v1120h320h320zM3308,2193c-3,-183 -8,-268 -18,-293c-24,-63 -67,-115 -118,-143c-88,-48 -82,-74 -82,333v360h111h111zM3730,1330v-1120l-317,2l-318,3v644v644l60,16c131,36 248,128 303,237c51,101 62,182 62,454v240h105h105z"></path><path d="M2533,3943c-31,-6 -70,-48 -77,-84c-3,-18 -6,-654 -6,-1416c0,-1515 -3,-1435 59,-1467c38,-20 64,-20 102,0c62,32 59,-49 59,1480c0,1238 -2,1400 -15,1429c-21,43 -72,67 -122,58z"></path></g></g></g></svg>