<svg version="1.1" xmlns="http://www.w3.org/2000/svg" xmlns:xlink="http://www.w3.org/1999/xlink" width="512.000000pt" height="512.000000pt" viewBox="0,0,256,256"><g fill="#ffffff" fill-rule="nonzero" stroke="none" stroke-width="1" stroke-linecap="butt" stroke-linejoin="miter" stroke-miterlimit="10" stroke-dasharray="" stroke-dashoffset="0" font-family="none" font-weight="none" font-size="none" text-anchor="none" style="mix-blend-mode: normal"><g transform="translate(0,0.14358) scale(0.5,0.5)"><g transform="translate(0,512) scale(0.1,-0.1)"><path d="M162,4205c-63,-19 -111,-61 -138,-119c-23,-50 -24,-58 -24,-321c0,-268 0,-270 26,-325l25,-54l-23,-41c-22,-39 -23,-49 -26,-310c-3,-279 1,-327 38,-375c18,-23 18,-25 1,-50c-37,-52 -41,-88 -41,-354c1,-271 6,-313 46,-357c17,-19 17,-22 -4,-82c-66,-194 -56,-336 44,-584c68,-169 92,-211 145,-257c128,-109 339,-86 440,48c41,55 72,147 68,206c-3,35 3,44 62,108c100,105 139,202 139,345v78l55,25l56,24h1947h1948l51,25c54,27 97,78 113,136c13,45 13,534 0,581c-6,20 -19,47 -29,60c-18,22 -18,24 -1,48c37,52 42,96 38,375c-3,261 -4,271 -26,310l-23,41l25,54c26,55 26,57 26,326v270l-28,55c-35,69 -99,115 -175,124c-28,3 -224,5 -434,3c-378,-3 -383,-3 -404,-25c-27,-27 -29,-75 -4,-103c18,-19 30,-20 422,-20c425,0 450,-2 467,-45c8,-22 8,-498 0,-520c-18,-45 -18,-45 -819,-45c-596,0 -756,3 -760,13c-2,6 -6,29 -10,49c-15,94 -119,171 -225,170l-58,-1l-35,82c-36,84 -71,228 -65,269l3,23l413,5c395,5 414,6 428,24c21,29 18,80 -7,102c-21,19 -66,19 -1823,21c-1481,1 -1809,-1 -1844,-12zM2844,3996c9,-95 36,-192 86,-306l41,-92l-49,-67l-48,-66l-592,-5c-539,-5 -593,-6 -608,-22c-24,-24 -22,-75 5,-101c22,-22 22,-22 552,-27l530,-5l-86,-116l-85,-116l-47,-5c-28,-3 -144,-44 -278,-99c-208,-85 -240,-101 -345,-176l-115,-83h-803h-803l-24,25l-25,24v249c0,236 1,251 21,275l20,27l609,2c582,3 609,4 629,22c27,25 28,79 1,106c-20,20 -33,20 -615,20c-630,0 -642,1 -659,45c-3,9 -6,128 -6,264c0,258 1,265 45,289c14,8 401,11 1331,12h1311zM3224,3497c6,-17 5,-44 -4,-81c-14,-60 -5,-113 27,-163c19,-28 86,-68 129,-78c39,-8 80,-50 88,-90c5,-24 -1,-45 -25,-90c-27,-51 -31,-66 -27,-121c4,-72 34,-120 98,-156c61,-35 74,-77 39,-122c-28,-36 -49,-35 -398,27l-294,52l-12,55c-13,62 -68,201 -97,242c-10,14 -18,28 -18,31c0,7 345,484 368,511c10,10 26,22 37,26c29,11 78,-12 89,-43zM3959,3254c36,-33 71,-77 86,-109c24,-49 26,-57 16,-110c-7,-38 -28,-85 -64,-145c-30,-49 -60,-110 -66,-135l-11,-45h-104h-104l-27,46c-17,29 -45,58 -76,77c-57,35 -59,47 -23,120c58,113 22,256 -80,325l-48,32h220h221zM4949,3284c20,-25 21,-39 21,-276v-249l-25,-24l-24,-25h-421c-332,0 -420,3 -420,13c0,7 19,44 41,82c115,194 125,311 39,444l-40,61h404h405zM2607,2905c23,-16 93,-181 93,-218c-1,-49 -17,-58 -315,-177c-144,-57 -188,-70 -288,-84c-64,-9 -121,-15 -126,-12c-4,3 -23,44 -41,91c-32,83 -33,86 -14,100c144,110 201,141 406,226c117,48 224,88 238,88c14,1 35,-6 47,-14zM1449,2556c-2,-2 -89,-38 -192,-81c-169,-68 -192,-75 -219,-66c-62,22 -127,13 -235,-32c-57,-23 -112,-50 -123,-60c-30,-25 -27,-80 6,-106c15,-12 33,-21 40,-21c8,0 59,18 114,40c55,22 113,40 128,40c38,0 63,-30 101,-122c34,-83 38,-123 16,-151c-7,-11 -119,-61 -247,-113c-128,-52 -250,-106 -270,-119c-57,-38 -93,-107 -93,-180c0,-50 9,-84 58,-203c31,-78 57,-154 57,-169c0,-44 -38,-110 -77,-135c-67,-41 -168,-22 -211,39c-30,44 -129,301 -143,371c-22,117 4,263 68,371c38,66 118,146 184,186c60,37 69,49 69,95c0,31 -39,70 -70,70c-29,0 -138,-73 -200,-134l-60,-58v246v247l25,24l24,25h627c345,0 625,-2 623,-4zM4945,2535l25,-24v-249c0,-237 -1,-251 -21,-276l-20,-26h-868h-868l14,53c26,100 36,241 24,344c-6,53 -10,97 -8,99c1,2 52,-6 112,-16c138,-25 205,-26 253,-1c43,22 99,75 108,103c5,17 34,18 615,18h610zM2936,2509l122,-22l11,-56c27,-144 22,-278 -15,-413l-17,-58h-900c-495,0 -897,3 -894,7c4,3 161,69 350,145l342,139l164,24c160,24 169,26 390,115c124,50 242,102 261,115c43,30 38,29 186,4zM1795,2440c15,-38 26,-72 24,-73c-7,-6 -553,-226 -568,-229c-17,-4 -77,130 -64,143c11,11 566,237 574,233c3,-2 18,-35 34,-74zM790,1655c0,-57 -34,-147 -72,-191c-17,-19 -33,-34 -37,-34c-4,0 -19,32 -35,72c-29,76 -29,107 4,135c17,15 113,60 133,62c4,1 7,-19 7,-44z"></path></g></g></g></svg>