<svg version="1.1" xmlns="http://www.w3.org/2000/svg" xmlns:xlink="http://www.w3.org/1999/xlink" width="800px" height="800px" viewBox="0,0,256,256"><g fill="#ffffff" fill-rule="nonzero" stroke="none" stroke-width="1" stroke-linecap="butt" stroke-linejoin="miter" stroke-miterlimit="10" stroke-dasharray="" stroke-dashoffset="0" font-family="none" font-weight="none" font-size="none" text-anchor="none" style="mix-blend-mode: normal"><g transform="translate(0,0) scale(0.5,0.5)"><g><g><path d="M176.589,0h-107.288c-4.195,0 -7.595,3.401 -7.595,7.595v121.339c0,0.019 0,0.037 0,0.057v375.413c0,4.195 3.401,7.595 7.595,7.595h24.645c0.003,0 0.005,0 0.008,0c0.004,0 0.007,0 0.01,0h17.921c0.009,0 0.018,0.002 0.027,0.002c0.008,0 0.016,-0.002 0.024,-0.002h64.651c4.195,0 7.595,-3.401 7.595,-7.595v-496.809c0.002,-4.194 -3.398,-7.595 -7.593,-7.595zM144.614,15.191c-1.254,2.705 -2.992,4.227 -4.164,4.227c-1.172,0 -2.91,-1.521 -4.164,-4.227zM87.135,496.808h-10.239v-321.422c29.4,115.54 13.952,285.753 10.239,321.422zM106.091,496.807h-3.678c2.044,-19.808 6.803,-72.032 7.337,-133.217c0.906,-103.949 -10.15,-183.411 -32.853,-236.262v-112.137h8.438c1.694,14.07 7.347,51.949 26.093,142.258c20.167,97.154 17.254,185.689 11.258,242.852c-5.117,48.793 -13.284,83.648 -16.595,96.506zM121.777,496.808c3.852,-15.506 11.149,-48.726 15.974,-94.512c6.147,-58.331 9.151,-148.695 -11.45,-247.934c-18.076,-87.09 -23.846,-124.696 -25.672,-139.172h19.72c2.483,11.335 10.425,19.418 20.103,19.418c9.678,0 17.619,-8.081 20.102,-19.418h8.44v18.641c-7.5,8.923 -28.748,41.217 -28.748,120.653c0,79.436 21.248,111.73 28.748,120.653v119.901c-29.92,28.719 -35.558,81.953 -36.617,101.77zM168.994,64.788v179.377c-6.706,-17.068 -13.557,-45.35 -13.557,-89.68c-0.001,-44.351 6.857,-72.64 13.557,-89.697zM168.995,496.808h-21.375c0.942,-15.651 4.886,-52.179 21.375,-77.863z"></path></g></g><g><g><path d="M309.041,0h-42.693c-0.02,0 -0.041,0 -0.061,0h-64.533c-4.195,0 -7.595,3.401 -7.595,7.595v496.808c0,4.195 3.401,7.595 7.595,7.595h107.287c4.196,0 7.595,-3.401 7.595,-7.595v-121.344c0,-0.016 0,-0.032 0,-0.049v-375.415c0,-4.194 -3.399,-7.595 -7.595,-7.595zM209.348,15.191h21.375c-0.942,15.652 -4.886,52.179 -21.375,77.863zM209.348,267.834c6.706,17.068 13.557,45.35 13.557,89.679c0,44.351 -6.858,72.639 -13.557,89.696zM233.728,496.808c1.254,-2.705 2.992,-4.227 4.163,-4.227c1.172,-0.001 2.91,1.521 4.164,4.227zM257.994,496.807c-2.483,-11.335 -10.426,-19.418 -20.103,-19.418c-9.677,0 -17.619,8.082 -20.102,19.418h-8.44v-18.641v0c7.5,-8.923 28.748,-41.217 28.748,-120.652c0,-79.435 -21.248,-111.73 -28.748,-120.652v-119.901c29.92,-28.718 35.56,-81.952 36.617,-101.77h10.6c-3.852,15.506 -11.149,48.726 -15.975,94.512c-6.147,58.331 -9.151,148.695 11.449,247.934c18.077,87.089 23.848,124.696 25.674,139.17zM301.445,496.808h-8.438v0c-1.694,-14.07 -7.347,-51.949 -26.093,-142.258c-20.167,-97.154 -17.254,-185.689 -11.258,-242.852c5.118,-48.793 13.285,-83.647 16.596,-96.506h3.677c-2.044,19.809 -6.803,72.032 -7.337,133.217c-0.907,103.949 10.15,183.412 32.853,236.262zM301.446,336.613c-29.4,-115.539 -13.952,-285.753 -10.239,-321.422h10.239z"></path></g></g><g><g><path d="M442.7,0h-107.287c-4.196,0 -7.595,3.401 -7.595,7.595v121.344c0,0.016 0,0.032 0,0.049v375.416c0,4.195 3.4,7.595 7.595,7.595h24.646c0.003,0 0.005,0 0.008,0c0.004,0 0.007,0 0.01,0h17.92c0.009,0 0.018,0.002 0.027,0.002c0.008,0 0.016,-0.002 0.024,-0.002h64.652c4.196,0 7.595,-3.401 7.595,-7.595v-496.809c0.001,-4.194 -3.399,-7.595 -7.595,-7.595zM410.727,15.191c-1.254,2.705 -2.992,4.227 -4.164,4.227c-1.173,0 -2.911,-1.521 -4.164,-4.227zM353.247,496.808h-10.239v-321.422c29.401,115.54 13.953,285.753 10.239,321.422zM372.202,496.807h-3.677c2.044,-19.808 6.803,-72.032 7.337,-133.217c0.907,-103.949 -10.151,-183.411 -32.853,-236.262v-112.137h8.438c1.694,14.07 7.347,51.949 26.093,142.258c20.167,97.154 17.254,185.689 11.258,242.852c-5.117,48.793 -13.284,83.648 -16.596,96.506zM387.888,496.807c3.851,-15.506 11.149,-48.726 15.975,-94.512c6.147,-58.331 9.151,-148.695 -11.449,-247.934c-18.077,-87.088 -23.849,-124.694 -25.674,-139.17h19.72c2.483,11.335 10.426,19.418 20.103,19.418c9.677,0 17.619,-8.081 20.102,-19.418h8.44v18.641c-7.5,8.923 -28.748,41.217 -28.748,120.653c0,79.436 21.248,111.73 28.748,120.652v119.901c-29.919,28.719 -35.558,81.953 -36.617,101.77h-10.6zM435.105,64.789v179.375c-6.706,-17.068 -13.557,-45.35 -13.557,-89.679c0,-44.351 6.857,-72.639 13.557,-89.696zM435.106,496.808h-21.375c0.942,-15.651 4.886,-52.179 21.375,-77.863z"></path></g></g></g></g></svg>