<svg version="1.1" xmlns="http://www.w3.org/2000/svg" xmlns:xlink="http://www.w3.org/1999/xlink" width="512.000000pt" height="512.000000pt" viewBox="0,0,256,256"><g fill="#ffffff" fill-rule="nonzero" stroke="none" stroke-width="1" stroke-linecap="butt" stroke-linejoin="miter" stroke-miterlimit="10" stroke-dasharray="" stroke-dashoffset="0" font-family="none" font-weight="none" font-size="none" text-anchor="none" style="mix-blend-mode: normal"><g transform="translate(0.01991,0.04304) scale(0.5,0.5)"><g transform="translate(0,512) scale(0.1,-0.1)"><path d="M530,5104c-35,-7 -101,-31 -145,-52c-246,-119 -385,-351 -385,-645c0,-80 3,-98 21,-121c26,-33 79,-36 109,-6c17,17 20,33 20,114c0,157 29,259 103,358l42,57l6,-109c5,-90 10,-118 33,-164c47,-97 136,-156 247,-164c91,-6 154,16 224,79c84,77 95,117 95,339v180h74h74l4,-182c4,-171 6,-187 30,-240c14,-31 45,-74 68,-97c123,-120 337,-104 441,33c55,72 61,102 66,304l5,182h48c32,0 55,-6 71,-19l24,-19l3,-329c3,-322 2,-330 -18,-356l-21,-27h-244c-281,0 -326,-7 -384,-57c-63,-53 -79,-94 -89,-222c-10,-130 -31,-172 -109,-218l-48,-28l-270,-3c-316,-4 -338,0 -405,67c-52,53 -70,101 -70,190c0,73 -20,101 -74,101c-64,0 -82,-39 -73,-156c7,-91 39,-166 100,-231l45,-48l4,-120c4,-109 7,-126 35,-187c34,-71 95,-140 155,-172l36,-20l4,-255c4,-242 6,-261 31,-344c86,-281 271,-496 533,-619c46,-21 118,-49 161,-61c77,-21 88,-22 883,-25l805,-3l49,-96c187,-366 553,-614 963,-652c258,-24 462,62 598,253c56,79 80,136 101,238c58,285 -114,573 -401,675l-80,28l-432,3c-410,3 -433,4 -433,21c0,48 33,198 56,257c77,191 246,357 435,428c158,58 348,61 502,8c112,-38 184,-81 270,-162c109,-102 182,-222 224,-371c16,-58 18,-109 18,-529c0,-496 -2,-526 -52,-680c-13,-41 -42,-110 -64,-154c-43,-86 -49,-134 -21,-159c25,-22 85,-22 104,1c27,29 87,159 118,250c63,191 65,209 65,742c-1,471 -1,487 -23,565c-25,90 -85,222 -133,293c-18,26 -62,78 -98,116c-114,119 -236,193 -398,243c-80,24 -103,27 -248,27c-145,0 -168,-3 -248,-27c-154,-47 -256,-107 -371,-216c-157,-150 -249,-332 -276,-543c-5,-46 -10,-88 -10,-95c0,-9 -21,-13 -75,-13h-75v33c0,17 5,64 10,102c57,397 316,719 687,855c213,77 472,81 683,10c308,-103 561,-353 668,-661c59,-168 64,-233 59,-750c-4,-430 -5,-471 -26,-561c-63,-283 -190,-517 -391,-718c-201,-200 -431,-326 -718,-392l-97,-22l-1768,-3l-1767,-3l-25,24c-30,30 -32,65 -6,97l19,24l1764,5c1756,6 1763,6 1853,27c224,53 429,156 572,287c62,56 71,96 30,134c-37,35 -67,28 -141,-32c-175,-144 -367,-227 -586,-256c-46,-6 -743,-10 -1790,-10c-1637,0 -1717,-1 -1755,-19c-77,-35 -135,-122 -135,-205c0,-90 75,-191 160,-214c35,-10 427,-12 1815,-9l1770,3l99,22c649,142 1118,614 1248,1255c22,108 23,131 23,612c0,541 -1,559 -57,729c-99,307 -318,564 -605,710c-80,41 -153,68 -263,97c-107,29 -353,37 -475,16c-539,-94 -939,-525 -997,-1075l-12,-112h-711c-597,0 -720,2 -768,15c-187,49 -333,195 -382,382c-11,42 -15,113 -15,259v202l43,25c55,33 109,92 144,159c25,48 28,65 31,179l4,127l41,40l42,40l155,4c150,3 157,4 222,35c118,56 203,170 215,289c5,49 8,54 30,54c58,0 126,45 169,113l24,37h293c262,0 296,2 332,19c45,21 90,62 111,103l15,28h556h556l35,-26c61,-47 105,-54 357,-54h232l204,-77c165,-62 215,-77 259,-77c94,0 169,54 205,147c14,37 16,82 13,327l-3,285l-28,48c-39,65 -111,107 -188,107c-46,0 -95,-15 -269,-80l-213,-80h-241c-211,0 -246,-3 -281,-19c-22,-10 -46,-25 -54,-34c-11,-14 -33,-17 -122,-17c-59,0 -119,-4 -132,-9c-47,-18 -57,-101 -15,-128c7,-4 54,-10 103,-13l90,-5l3,-72l3,-73h-531h-530v75v75h293h294l21,23c31,33 29,80 -4,106c-26,20 -38,21 -325,21c-263,0 -299,2 -299,15c0,27 -92,110 -136,123c-28,8 -131,12 -327,12c-277,0 -286,1 -292,20c-12,37 -59,83 -110,106l-50,24l-590,-1c-467,0 -604,-4 -655,-15zM750,4798c0,-155 -2,-176 -20,-206c-61,-99 -203,-95 -258,9c-21,40 -22,53 -20,183l3,139l40,14c61,22 114,31 188,32l67,1zM1510,4818c0,-178 -7,-212 -55,-258c-28,-27 -44,-34 -87,-38c-44,-3 -59,0 -87,20c-72,49 -75,60 -79,254l-4,174h156h156zM4949,4874c20,-25 21,-39 21,-284c0,-353 9,-345 -265,-241l-180,68l-3,175l-2,175l172,66c196,74 227,79 257,41zM2535,4795c25,-24 25,-27 25,-198c0,-161 -2,-176 -21,-201l-20,-26h-280h-279v225v225h275h276zM4370,4590v-150h-199c-259,0 -251,-5 -251,152c0,157 -16,148 242,148h208zM1580,4043c-1,-72 -82,-172 -157,-192c-21,-6 -80,-11 -132,-11h-93l4,89c4,92 14,116 53,131c11,5 89,9 173,9l152,1zM898,3464c-2,-68 -7,-87 -31,-122c-15,-23 -46,-54 -69,-69c-39,-27 -49,-28 -176,-31c-157,-4 -197,6 -255,66c-44,45 -67,106 -67,181v56h301h301zM680,2893c0,-142 5,-216 16,-263c52,-223 224,-409 454,-492l65,-23l1395,-5c1260,-5 1400,-7 1442,-22c211,-73 346,-291 309,-499c-33,-192 -204,-355 -396,-378c-270,-32 -607,103 -816,327c-64,69 -179,234 -179,258c0,11 18,14 80,14h79l42,-62c158,-235 445,-388 727,-388c79,0 96,3 150,31c109,54 167,151 165,275c-1,111 -66,210 -171,261l-57,28l-1395,5l-1395,5l-85,29c-101,34 -145,55 -224,109c-124,84 -244,232 -299,369c-45,114 -57,199 -57,418v200h75h75zM3980,1788c105,-54 113,-197 14,-258c-33,-21 -44,-22 -137,-17c-137,7 -259,50 -376,130c-49,33 -161,143 -161,158c0,5 129,9 308,9c299,0 309,-1 352,-22z"></path></g></g></g></svg>