<?xml version="1.0" standalone="no"?> <!DOCTYPE svg PUBLIC "-//W3C//DTD SVG 20010904//EN" "http://www.w3.org/TR/2001/REC-SVG-20010904/DTD/svg10.dtd"> <svg version="1.0" xmlns="http://www.w3.org/2000/svg" width="512.000000pt" height="512.000000pt" viewBox="0 0 512.000000 512.000000" preserveAspectRatio="xMidYMid meet"> <g transform="translate(0.000000,512.000000) scale(0.100000,-0.100000)" fill="#000000" stroke="none"> <path d="M530 5104 c-35 -7 -101 -31 -145 -52 -246 -119 -385 -351 -385 -645 0 -80 3 -98 21 -121 26 -33 79 -36 109 -6 17 17 20 33 20 114 0 157 29 259 103 358 l42 57 6 -109 c5 -90 10 -118 33 -164 47 -97 136 -156 247 -164 91 -6 154 16 224 79 84 77 95 117 95 339 l0 180 74 0 74 0 4 -182 c4 -171 6 -187 30 -240 14 -31 45 -74 68 -97 123 -120 337 -104 441 33 55 72 61 102 66 304 l5 182 48 0 c32 0 55 -6 71 -19 l24 -19 3 -329 c3 -322 2 -330 -18 -356 l-21 -27 -244 0 c-281 0 -326 -7 -384 -57 -63 -53 -79 -94 -89 -222 -10 -130 -31 -172 -109 -218 l-48 -28 -270 -3 c-316 -4 -338 0 -405 67 -52 53 -70 101 -70 190 0 73 -20 101 -74 101 -64 0 -82 -39 -73 -156 7 -91 39 -166 100 -231 l45 -48 4 -120 c4 -109 7 -126 35 -187 34 -71 95 -140 155 -172 l36 -20 4 -255 c4 -242 6 -261 31 -344 86 -281 271 -496 533 -619 46 -21 118 -49 161 -61 77 -21 88 -22 883 -25 l805 -3 49 -96 c187 -366 553 -614 963 -652 258 -24 462 62 598 253 56 79 80 136 101 238 58 285 -114 573 -401 675 l-80 28 -432 3 c-410 3 -433 4 -433 21 0 48 33 198 56 257 77 191 246 357 435 428 158 58 348 61 502 8 112 -38 184 -81 270 -162 109 -102 182 -222 224 -371 16 -58 18 -109 18 -529 0 -496 -2 -526 -52 -680 -13 -41 -42 -110 -64 -154 -43 -86 -49 -134 -21 -159 25 -22 85 -22 104 1 27 29 87 159 118 250 63 191 65 209 65 742 -1 471 -1 487 -23 565 -25 90 -85 222 -133 293 -18 26 -62 78 -98 116 -114 119 -236 193 -398 243 -80 24 -103 27 -248 27 -145 0 -168 -3 -248 -27 -154 -47 -256 -107 -371 -216 -157 -150 -249 -332 -276 -543 -5 -46 -10 -88 -10 -95 0 -9 -21 -13 -75 -13 l-75 0 0 33 c0 17 5 64 10 102 57 397 316 719 687 855 213 77 472 81 683 10 308 -103 561 -353 668 -661 59 -168 64 -233 59 -750 -4 -430 -5 -471 -26 -561 -63 -283 -190 -517 -391 -718 -201 -200 -431 -326 -718 -392 l-97 -22 -1768 -3 -1767 -3 -25 24 c-30 30 -32 65 -6 97 l19 24 1764 5 c1756 6 1763 6 1853 27 224 53 429 156 572 287 62 56 71 96 30 134 -37 35 -67 28 -141 -32 -175 -144 -367 -227 -586 -256 -46 -6 -743 -10 -1790 -10 -1637 0 -1717 -1 -1755 -19 -77 -35 -135 -122 -135 -205 0 -90 75 -191 160 -214 35 -10 427 -12 1815 -9 l1770 3 99 22 c649 142 1118 614 1248 1255 22 108 23 131 23 612 0 541 -1 559 -57 729 -99 307 -318 564 -605 710 -80 41 -153 68 -263 97 -107 29 -353 37 -475 16 -539 -94 -939 -525 -997 -1075 l-12 -112 -711 0 c-597 0 -720 2 -768 15 -187 49 -333 195 -382 382 -11 42 -15 113 -15 259 l0 202 43 25 c55 33 109 92 144 159 25 48 28 65 31 179 l4 127 41 40 42 40 155 4 c150 3 157 4 222 35 118 56 203 170 215 289 5 49 8 54 30 54 58 0 126 45 169 113 l24 37 293 0 c262 0 296 2 332 19 45 21 90 62 111 103 l15 28 556 0 556 0 35 -26 c61 -47 105 -54 357 -54 l232 0 204 -77 c165 -62 215 -77 259 -77 94 0 169 54 205 147 14 37 16 82 13 327 l-3 285 -28 48 c-39 65 -111 107 -188 107 -46 0 -95 -15 -269 -80 l-213 -80 -241 0 c-211 0 -246 -3 -281 -19 -22 -10 -46 -25 -54 -34 -11 -14 -33 -17 -122 -17 -59 0 -119 -4 -132 -9 -47 -18 -57 -101 -15 -128 7 -4 54 -10 103 -13 l90 -5 3 -72 3 -73 -531 0 -530 0 0 75 0 75 293 0 294 0 21 23 c31 33 29 80 -4 106 -26 20 -38 21 -325 21 -263 0 -299 2 -299 15 0 27 -92 110 -136 123 -28 8 -131 12 -327 12 -277 0 -286 1 -292 20 -12 37 -59 83 -110 106 l-50 24 -590 -1 c-467 0 -604 -4 -655 -15z m220 -306 c0 -155 -2 -176 -20 -206 -61 -99 -203 -95 -258 9 -21 40 -22 53 -20 183 l3 139 40 14 c61 22 114 31 188 32 l67 1 0 -172z m760 20 c0 -178 -7 -212 -55 -258 -28 -27 -44 -34 -87 -38 -44 -3 -59 0 -87 20 -72 49 -75 60 -79 254 l-4 174 156 0 156 0 0 -152z m3439 56 c20 -25 21 -39 21 -284 0 -353 9 -345 -265 -241 l-180 68 -3 175 -2 175 172 66 c196 74 227 79 257 41z m-2414 -79 c25 -24 25 -27 25 -198 0 -161 -2 -176 -21 -201 l-20 -26 -280 0 -279 0 0 225 0 225 275 0 276 0 24 -25z m1835 -205 l0 -150 -199 0 c-259 0 -251 -5 -251 152 0 157 -16 148 242 148 l208 0 0 -150z m-2790 -547 c-1 -72 -82 -172 -157 -192 -21 -6 -80 -11 -132 -11 l-93 0 4 89 c4 92 14 116 53 131 11 5 89 9 173 9 l152 1 0 -27z m-682 -579 c-2 -68 -7 -87 -31 -122 -15 -23 -46 -54 -69 -69 -39 -27 -49 -28 -176 -31 -157 -4 -197 6 -255 66 -44 45 -67 106 -67 181 l0 56 301 0 301 0 -4 -81z m-218 -571 c0 -142 5 -216 16 -263 52 -223 224 -409 454 -492 l65 -23 1395 -5 c1260 -5 1400 -7 1442 -22 211 -73 346 -291 309 -499 -33 -192 -204 -355 -396 -378 -270 -32 -607 103 -816 327 -64 69 -179 234 -179 258 0 11 18 14 80 14 l79 0 42 -62 c158 -235 445 -388 727 -388 79 0 96 3 150 31 109 54 167 151 165 275 -1 111 -66 210 -171 261 l-57 28 -1395 5 -1395 5 -85 29 c-101 34 -145 55 -224 109 -124 84 -244 232 -299 369 -45 114 -57 199 -57 418 l0 200 75 0 75 0 0 -197z m3300 -1105 c105 -54 113 -197 14 -258 -33 -21 -44 -22 -137 -17 -137 7 -259 50 -376 130 -49 33 -161 143 -161 158 0 5 129 9 308 9 299 0 309 -1 352 -22z"/> </g> </svg>