<?xml version="1.0" standalone="no"?>
<!DOCTYPE svg PUBLIC "-//W3C//DTD SVG 20010904//EN"
 "http://www.w3.org/TR/2001/REC-SVG-20010904/DTD/svg10.dtd">
<svg version="1.0" xmlns="http://www.w3.org/2000/svg"
 width="512.000000pt" height="512.000000pt" viewBox="0 0 512.000000 512.000000"
 preserveAspectRatio="xMidYMid meet">

<g transform="translate(0.000000,512.000000) scale(0.100000,-0.100000)"
fill="#000000" stroke="none">
<path d="M162 4205 c-63 -19 -111 -61 -138 -119 -23 -50 -24 -58 -24 -321 0
-268 0 -270 26 -325 l25 -54 -23 -41 c-22 -39 -23 -49 -26 -310 -3 -279 1
-327 38 -375 18 -23 18 -25 1 -50 -37 -52 -41 -88 -41 -354 1 -271 6 -313 46
-357 17 -19 17 -22 -4 -82 -66 -194 -56 -336 44 -584 68 -169 92 -211 145
-257 128 -109 339 -86 440 48 41 55 72 147 68 206 -3 35 3 44 62 108 100 105
139 202 139 345 l0 78 55 25 56 24 1947 0 1948 0 51 25 c54 27 97 78 113 136
13 45 13 534 0 581 -6 20 -19 47 -29 60 -18 22 -18 24 -1 48 37 52 42 96 38
375 -3 261 -4 271 -26 310 l-23 41 25 54 c26 55 26 57 26 326 l0 270 -28 55
c-35 69 -99 115 -175 124 -28 3 -224 5 -434 3 -378 -3 -383 -3 -404 -25 -27
-27 -29 -75 -4 -103 18 -19 30 -20 422 -20 425 0 450 -2 467 -45 8 -22 8 -498
0 -520 -18 -45 -18 -45 -819 -45 -596 0 -756 3 -760 13 -2 6 -6 29 -10 49 -15
94 -119 171 -225 170 l-58 -1 -35 82 c-36 84 -71 228 -65 269 l3 23 413 5
c395 5 414 6 428 24 21 29 18 80 -7 102 -21 19 -66 19 -1823 21 -1481 1 -1809
-1 -1844 -12z m2682 -209 c9 -95 36 -192 86 -306 l41 -92 -49 -67 -48 -66
-592 -5 c-539 -5 -593 -6 -608 -22 -24 -24 -22 -75 5 -101 22 -22 22 -22 552
-27 l530 -5 -86 -116 -85 -116 -47 -5 c-28 -3 -144 -44 -278 -99 -208 -85
-240 -101 -345 -176 l-115 -83 -803 0 -803 0 -24 25 -25 24 0 249 c0 236 1
251 21 275 l20 27 609 2 c582 3 609 4 629 22 27 25 28 79 1 106 -20 20 -33 20
-615 20 -630 0 -642 1 -659 45 -3 9 -6 128 -6 264 0 258 1 265 45 289 14 8
401 11 1331 12 l1311 0 7 -74z m380 -499 c6 -17 5 -44 -4 -81 -14 -60 -5 -113
27 -163 19 -28 86 -68 129 -78 39 -8 80 -50 88 -90 5 -24 -1 -45 -25 -90 -27
-51 -31 -66 -27 -121 4 -72 34 -120 98 -156 61 -35 74 -77 39 -122 -28 -36
-49 -35 -398 27 l-294 52 -12 55 c-13 62 -68 201 -97 242 -10 14 -18 28 -18
31 0 7 345 484 368 511 10 10 26 22 37 26 29 11 78 -12 89 -43z m735 -243 c36
-33 71 -77 86 -109 24 -49 26 -57 16 -110 -7 -38 -28 -85 -64 -145 -30 -49
-60 -110 -66 -135 l-11 -45 -104 0 -104 0 -27 46 c-17 29 -45 58 -76 77 -57
35 -59 47 -23 120 58 113 22 256 -80 325 l-48 32 220 0 221 0 60 -56z m990 30
c20 -25 21 -39 21 -276 l0 -249 -25 -24 -24 -25 -421 0 c-332 0 -420 3 -420
13 0 7 19 44 41 82 115 194 125 311 39 444 l-40 61 404 0 405 0 20 -26z
m-2342 -379 c23 -16 93 -181 93 -218 -1 -49 -17 -58 -315 -177 -144 -57 -188
-70 -288 -84 -64 -9 -121 -15 -126 -12 -4 3 -23 44 -41 91 -32 83 -33 86 -14
100 144 110 201 141 406 226 117 48 224 88 238 88 14 1 35 -6 47 -14z m-1158
-349 c-2 -2 -89 -38 -192 -81 -169 -68 -192 -75 -219 -66 -62 22 -127 13 -235
-32 -57 -23 -112 -50 -123 -60 -30 -25 -27 -80 6 -106 15 -12 33 -21 40 -21 8
0 59 18 114 40 55 22 113 40 128 40 38 0 63 -30 101 -122 34 -83 38 -123 16
-151 -7 -11 -119 -61 -247 -113 -128 -52 -250 -106 -270 -119 -57 -38 -93
-107 -93 -180 0 -50 9 -84 58 -203 31 -78 57 -154 57 -169 0 -44 -38 -110 -77
-135 -67 -41 -168 -22 -211 39 -30 44 -129 301 -143 371 -22 117 4 263 68 371
38 66 118 146 184 186 60 37 69 49 69 95 0 31 -39 70 -70 70 -29 0 -138 -73
-200 -134 l-60 -58 0 246 0 247 25 24 24 25 627 0 c345 0 625 -2 623 -4z
m3496 -21 l25 -24 0 -249 c0 -237 -1 -251 -21 -276 l-20 -26 -868 0 -868 0 14
53 c26 100 36 241 24 344 -6 53 -10 97 -8 99 1 2 52 -6 112 -16 138 -25 205
-26 253 -1 43 22 99 75 108 103 5 17 34 18 615 18 l610 0 24 -25z m-2009 -26
l122 -22 11 -56 c27 -144 22 -278 -15 -413 l-17 -58 -900 0 c-495 0 -897 3
-894 7 4 3 161 69 350 145 l342 139 164 24 c160 24 169 26 390 115 124 50 242
102 261 115 43 30 38 29 186 4z m-1141 -69 c15 -38 26 -72 24 -73 -7 -6 -553
-226 -568 -229 -17 -4 -77 130 -64 143 11 11 566 237 574 233 3 -2 18 -35 34
-74z m-1005 -785 c0 -57 -34 -147 -72 -191 -17 -19 -33 -34 -37 -34 -4 0 -19
32 -35 72 -29 76 -29 107 4 135 17 15 113 60 133 62 4 1 7 -19 7 -44z"/>
</g>
</svg>
